<svg width="93" height="29" viewBox="0 0 93 29" fill="none" xmlns="http://www.w3.org/2000/svg">
<g id="YMusicLogo">
<path id="Vector" d="M14.3258 28.3333C22.2377 28.3333 28.6515 22.0246 28.6515 14.2424C28.6515 6.4602 22.2377 0.151489 14.3258 0.151489C6.41386 0.151489 0 6.4602 0 14.2424C0 22.0246 6.41386 28.3333 14.3258 28.3333Z" fill="#FF0000"/>
<path id="Vector_2" d="M14.3258 22.6969C19.0599 22.6969 22.8977 18.9117 22.8977 14.2424C22.8977 9.57307 19.0599 5.78784 14.3258 5.78784C9.59159 5.78784 5.75378 9.57307 5.75378 14.2424C5.75378 18.9117 9.59159 22.6969 14.3258 22.6969Z" fill="#FF0000" stroke="white" stroke-width="1.03333" stroke-miterlimit="18.1818"/>
<g id="Group">
<path id="Vector_3" d="M11.3901 18.3522L18.9053 14.2424L11.3901 10.1325V18.3522Z" fill="white"/>
<path id="Vector_4" d="M43.9167 11.4242C43.2121 14.8295 42.7424 18.822 42.5076 20.5833H42.2727C42.0379 18.822 41.5682 14.8295 40.8636 11.5417L39.1023 3.32196H33.8182V25.5151H37.1061V7.19696L37.4583 8.95833L40.8636 25.5151H44.1515L47.4394 8.95833L47.6742 7.19696V25.3977H50.9621V3.32196H45.5606C45.678 3.32196 43.9167 11.4242 43.9167 11.4242Z" fill="white"/>
<path id="Vector_5" d="M59.8864 22.1098C59.5341 22.6969 58.947 23.1666 58.2424 23.1666C57.5379 23.1666 57.1856 22.5795 57.1856 21.1704V9.31055H53.428V21.2878C53.428 24.2234 54.4849 25.6325 56.7159 25.6325C58.2424 25.6325 59.4167 24.928 60.3561 23.4015H60.4735L60.8258 25.3977H63.7614V9.31055H59.8864V22.1098Z" fill="white"/>
<path id="Vector_6" d="M70.9242 15.6514C69.75 14.8295 68.928 14.2424 68.928 12.9507C68.928 12.0113 69.3977 11.5416 70.3371 11.5416C71.3939 11.5416 71.7462 12.2461 71.7462 14.712L74.9166 14.5946C75.1515 10.7196 73.8598 9.07568 70.3371 9.07568C67.1666 9.07568 65.5227 10.4848 65.5227 13.303C65.5227 15.8863 66.8144 17.0605 68.928 18.7045C70.8068 20.1136 71.8636 20.8181 71.8636 21.9924C71.8636 22.8143 71.2765 23.4014 70.3371 23.4014C69.1628 23.4014 68.5757 22.3446 68.6932 20.5833H65.5227C65.053 23.9886 66.4621 25.8674 70.1022 25.8674C73.3901 25.8674 75.0341 24.4583 75.0341 21.5227C75.2689 18.8219 73.8598 17.7651 70.9242 15.6514Z" fill="white"/>
<path id="Vector_7" d="M77.2651 9.31055H80.9053V25.3977H77.2651V9.31055Z" fill="white"/>
<path id="Vector_8" d="M79.1439 2.85217C77.7348 2.85217 77.1477 3.32187 77.1477 5.08323C77.1477 6.8446 77.8523 7.31429 79.1439 7.31429C80.553 7.31429 81.1401 6.8446 81.1401 5.08323C81.1401 3.43929 80.553 2.85217 79.1439 2.85217Z" fill="white"/>
<path id="Vector_9" d="M93 19.6439L89.7121 19.5264C89.7121 22.3446 89.3598 23.284 88.303 23.284C87.2462 23.284 87.0114 22.2272 87.0114 18.9393V15.7689C87.0114 12.481 87.2462 11.5416 88.303 11.5416C89.3598 11.5416 89.5947 12.481 89.5947 15.534L92.8826 15.2992C93.1174 12.8333 92.7651 11.0719 91.8258 10.1325C91.1212 9.42796 89.947 9.07568 88.4205 9.07568C84.7803 9.07568 83.2538 10.9545 83.2538 16.356V18.587C83.2538 24.106 84.5454 25.8674 88.303 25.8674C89.8295 25.8674 91.0038 25.5151 91.7083 24.8105C92.6477 23.7537 93 22.1098 93 19.6439Z" fill="white"/>
</g>
</g>
</svg>
