<svg width="92" height="35" viewBox="0 0 92 35" fill="none" xmlns="http://www.w3.org/2000/svg">
<g id="YMusicLogo">
<path id="Vector" d="M14.6786 34.3365C22.4369 34.3365 28.7262 26.65 28.7262 17.1682C28.7262 7.68648 22.4369 0 14.6786 0C6.92036 0 0.631042 7.68648 0.631042 17.1682C0.631042 26.65 6.92036 34.3365 14.6786 34.3365Z" fill="#FF0000"/>
<path id="Vector_2" d="M14.6787 27.4692C19.3209 27.4692 23.0842 22.8573 23.0842 17.1683C23.0842 11.4792 19.3209 6.86731 14.6787 6.86731C10.0364 6.86731 6.27313 11.4792 6.27313 17.1683C6.27313 22.8573 10.0364 27.4692 14.6787 27.4692Z" fill="#FF0000" stroke="white" stroke-width="1.03333" stroke-miterlimit="18.1818"/>
<g id="Group">
<path id="Vector_3" d="M11.8 22.1757L19.1693 17.1683L11.8 12.1609V22.1757Z" fill="white"/>
<path id="Vector_4" d="M43.695 13.7347C43.0041 17.8836 42.5436 22.748 42.3133 24.894H42.083C41.8527 22.748 41.3921 17.8836 40.7013 13.8777L38.9741 3.86292H33.7926V30.9029H37.0166V8.58418L37.3621 10.7302L40.7013 30.9029H43.9253L47.1493 10.7302L47.3796 8.58418V30.7598H50.6037V3.86292H45.307C45.4222 3.86292 43.695 13.7347 43.695 13.7347Z" fill="white"/>
<path id="Vector_5" d="M59.3546 26.7539C59.0092 27.4692 58.4334 28.0415 57.7426 28.0415C57.0517 28.0415 56.7063 27.3262 56.7063 25.6094V11.1594H53.0217V25.7524C53.0217 29.3291 54.058 31.046 56.2457 31.046C57.7426 31.046 58.894 30.1875 59.8152 28.3277H59.9303L60.2758 30.7598H63.1544V11.1594H59.3546V26.7539Z" fill="white"/>
<path id="Vector_6" d="M70.1782 18.8851C69.0267 17.8837 68.2207 17.1683 68.2207 15.5946C68.2207 14.45 68.6813 13.8777 69.6024 13.8777C70.6387 13.8777 70.9842 14.7361 70.9842 17.7406L74.0931 17.5975C74.3234 12.8763 73.0568 10.8733 69.6024 10.8733C66.4936 10.8733 64.8815 12.5901 64.8815 16.0238C64.8815 19.1713 66.1481 20.602 68.2207 22.6049C70.063 24.3217 71.0993 25.1802 71.0993 26.6108C71.0993 27.6123 70.5236 28.3277 69.6024 28.3277C68.451 28.3277 67.8753 27.04 67.9904 24.894H64.8815C64.421 29.043 65.8027 31.3321 69.3722 31.3321C72.5962 31.3321 74.2082 29.6153 74.2082 26.0386C74.4385 22.748 73.0568 21.4604 70.1782 18.8851Z" fill="white"/>
<path id="Vector_7" d="M76.3959 11.1594H79.9654V30.7598H76.3959V11.1594Z" fill="white"/>
<path id="Vector_8" d="M78.2382 3.29065C76.8565 3.29065 76.2808 3.86292 76.2808 6.00895C76.2808 8.15498 76.9716 8.72726 78.2382 8.72726C79.6199 8.72726 80.1957 8.15498 80.1957 6.00895C80.1957 4.00599 79.6199 3.29065 78.2382 3.29065Z" fill="white"/>
<path id="Vector_9" d="M91.8253 23.7495L88.6012 23.6064C88.6012 27.04 88.2558 28.1846 87.2195 28.1846C86.1832 28.1846 85.9529 26.897 85.9529 22.8911V19.0282C85.9529 15.0223 86.1832 13.8777 87.2195 13.8777C88.2558 13.8777 88.4861 15.0223 88.4861 18.7421L91.7101 18.4559C91.9404 15.4515 91.595 13.3055 90.6738 12.1609C89.983 11.3025 88.8315 10.8733 87.3347 10.8733C83.7652 10.8733 82.2683 13.1624 82.2683 19.7435V22.4619C82.2683 29.1861 83.5349 31.3321 87.2195 31.3321C88.7164 31.3321 89.8678 30.9029 90.5587 30.0445C91.4798 28.7569 91.8253 26.7539 91.8253 23.7495Z" fill="white"/>
</g>
</g>
</svg>
